<?xml version="1.0" encoding="UTF-8" standalone="no"?>
<!-- Created with Inkscape (http://www.inkscape.org/) -->

<svg
   version="1.1"
   id="svg1"
   width="2048"
   height="2048"
   viewBox="0 0 2048 2048"
   sodipodi:docname="logo-vectorizado.svg"
   inkscape:version="1.4.2 (f4327f4, 2025-05-13)"
   xmlns:inkscape="http://www.inkscape.org/namespaces/inkscape"
   xmlns:sodipodi="http://sodipodi.sourceforge.net/DTD/sodipodi-0.dtd"
   xmlns="http://www.w3.org/2000/svg"
   xmlns:svg="http://www.w3.org/2000/svg">
  <defs
     id="defs1" />
  <sodipodi:namedview
     id="namedview1"
     pagecolor="#ffffff"
     bordercolor="#000000"
     borderopacity="0.25"
     inkscape:showpageshadow="2"
     inkscape:pageopacity="0.0"
     inkscape:pagecheckerboard="0"
     inkscape:deskcolor="#d1d1d1"
     inkscape:zoom="0.26689138"
     inkscape:cx="638.83667"
     inkscape:cy="657.57089"
     inkscape:window-width="1920"
     inkscape:window-height="991"
     inkscape:window-x="-9"
     inkscape:window-y="-9"
     inkscape:window-maximized="1"
     inkscape:current-layer="g1" />
  <g
     inkscape:groupmode="layer"
     inkscape:label="Image"
     id="g1">
    <path
       style="fill:#011532;fill-opacity:1;stroke:#1f3558;stroke-opacity:1"
       d="m 1010.4323,1745.1628 c -11.202,-3.0868 -18.1947,-6.4991 -40.673,-19.8474 -12.0049,-7.129 -27.452,-16.2378 -34.327,-20.242 -6.875,-4.0042 -21.275,-12.5413 -32,-18.9714 -38.528,-23.0993 -108.2311,-64.4107 -135,-80.0113 -16.3472,-9.527 -48.9897,-28.8023 -61,-36.0204 -5.225,-3.1402 -13.8812,-8.2889 -19.2359,-11.4416 -5.3548,-3.1527 -10.8673,-7.0767 -12.25,-8.72 -5.8166,-6.9126 -1.1176,-17.8344 7.6731,-17.8344 1.2753,0 14.4674,7.2608 29.3157,16.1351 28.0391,16.7579 79.2351,47.1245 135.9971,80.6657 18.15,10.725 41.1,24.3134 51,30.1964 16.7704,9.9658 67.8139,40.2563 86,51.0346 19.8433,11.7605 27.4461,14.4168 41,14.3247 14.198,-0.097 24.8861,-3.935 46.0052,-16.5223 8.7971,-5.2433 22.0698,-13.0354 29.4948,-17.3157 7.425,-4.2804 28.575,-16.6492 47,-27.4864 58.8018,-34.5859 171.2221,-100.2498 238,-139.0143 6.325,-3.6716 18.25,-10.6474 26.5,-15.5017 23.9292,-14.0799 41.7647,-24.5224 76.5,-44.79 17.875,-10.4298 37.225,-21.7686 43,-25.1973 8.7599,-5.2009 30.8826,-18.0423 75.5,-43.8249 3.85,-2.2247 10.199,-7.2308 14.109,-11.1244 7.2533,-7.2233 10.7209,-12.8042 14.0295,-22.5795 1.7983,-5.3132 1.8712,-16.7947 2.148,-338 0.2006,-232.71021 -0.034,-334.45076 -0.7833,-338.99998 -1.5388,-9.34876 -5.8559,-17.38702 -13.7161,-25.5391 -7.286,-7.55647 -10.7669,-9.71475 -61.2871,-37.99959 -54.2969,-30.39931 -53,-29.48016 -53,-37.56253 0,-4.02756 0.4964,-5.48613 2.5746,-7.5643 2.2154,-2.21538 3.2291,-2.51171 7.2656,-2.12386 2.6509,0.25472 6.4238,1.55591 8.6754,2.99198 2.1914,1.39768 11.8594,6.93908 21.4844,12.31421 9.625,5.37513 27.85,15.61619 40.5,22.75791 12.65,7.14172 25.475,14.35168 28.5,16.02214 10.7723,5.94865 17.1774,11.16731 24.0888,19.62674 8.1549,9.98139 11.8849,17.29076 14.8075,29.01679 l 2.1037,8.44039 v 334.7216 c 0,362.6204 0.3103,341.7906 -5.2972,355.5908 -1.3557,3.3365 -4.318,8.7951 -6.5829,12.1302 -8.9159,13.1293 -18.2379,20.0866 -56.6199,42.2574 -38.0586,21.984 -44.6492,25.8161 -79,45.9345 -18.15,10.6299 -35.475,20.7409 -38.5,22.4688 -3.025,1.7278 -12.25,7.1164 -20.5,11.9745 -8.25,4.8582 -20.4,11.983 -27,15.8329 -6.6,3.85 -15.15,8.8949 -19,11.211 -3.85,2.3161 -22.75,13.3446 -42,24.5078 -19.25,11.1632 -43.55,25.3333 -54,31.4893 -10.45,6.1559 -26.65,15.599 -36,20.9847 -9.35,5.3857 -22.4,13.0234 -29,16.9727 -6.6,3.9493 -30,17.6794 -52,30.5115 -22,12.8321 -46.3,27.0321 -54,31.5555 -70.3962,41.3552 -84.9228,49.1314 -98.0558,52.4903 -9.8611,2.522 -23.4483,2.5531 -32.4442,0.074 z m 5.3175,-41.9881 c -1.7503,-0.4511 -5.3945,-1.9768 -8.098,-3.3904 -6.0673,-3.1726 -190.4323,-113.6572 -228.2515,-136.7846 -37.1981,-22.7476 -66.1491,-42.5757 -67.3923,-46.1559 -0.5214,-1.5018 -0.6811,-2.9974 -0.3548,-3.3237 0.7892,-0.7893 5.4734,1.6954 15.7758,8.3683 11.1306,7.2092 29.1642,18.0918 69.5033,41.9427 43.896,25.9539 161.5364,96.2319 188.5,112.6093 27.332,16.6012 30.5363,17.9371 41.8854,17.4627 12.3075,-0.5145 4.9525,3.393 97.6146,-51.8591 15.4,-9.1826 42.625,-25.3655 60.5,-35.962 41.1177,-24.3751 93.4398,-55.483 129.5,-76.9937 79.3979,-47.3628 201.9772,-119.9574 247.5,-146.5758 32.12,-18.7815 36.065,-21.5608 40.5509,-28.5693 5.8692,-9.1698 5.4881,15.6763 5.2066,-339.4008 l -0.2575,-324.96808 -2.9381,-5.30355 c -4.2851,-7.7351 -7.8944,-10.50543 -30.0619,-23.07422 -11,-6.2369 -27.425,-15.71908 -36.5,-21.07151 -9.075,-5.35242 -19.7039,-11.58875 -23.6198,-13.85851 l -7.1198,-4.12682 1.0764,-4.03269 c 0.592,-2.21799 1.4943,-4.0327 2.0051,-4.0327 0.5109,0 7.2804,3.78225 15.0434,8.405 11.7905,7.02101 29.2147,16.94578 73.4392,41.83091 5.8445,3.28871 10.0512,8.42076 15.3155,18.68448 l 3.36,6.55086 0.2943,323.01433 c 0.2159,236.9356 -0.01,324.6133 -0.8352,329.0144 -2.7295,14.4998 -11.3637,25.7707 -26.5306,34.6326 -41.063,23.9928 -51.6494,30.1937 -62.9285,36.8597 -7.15,4.2256 -22,12.9967 -33,19.4913 -11,6.4946 -35.525,21.0372 -54.5,32.3169 -18.975,11.2797 -35.85,21.2812 -37.5,22.2257 -1.65,0.9444 -38.325,22.7669 -81.5,48.4943 -43.175,25.7274 -82.1,48.9037 -86.5,51.5028 -4.4,2.5992 -26.45,15.7353 -49,29.1913 -22.55,13.4561 -54.95,32.6971 -72,42.7578 -17.05,10.0607 -38.7801,22.9907 -48.2892,28.7332 -23.8734,14.4172 -26.4814,15.5195 -37.6237,15.9025 -4.9979,0.1718 -10.5192,-0.057 -12.2696,-0.5077 z M 602.9424,1530.9552 c -13.1827,-2.6622 -28.0365,-13.8816 -33.4315,-25.2517 -5.6335,-11.8727 -6.4684,-25.8797 -2.2568,-37.8625 6.9224,-19.6954 28.0335,-33.3954 48.4782,-31.4595 7.8922,0.7473 13.5024,2.749 21.8851,7.8088 l 6.6851,4.035 4.8149,-2.1216 c 2.6482,-1.1669 9.0899,-4.5164 14.3149,-7.4434 5.225,-2.9269 28.175,-15.0093 51,-26.8497 22.825,-11.8404 44.801,-23.4553 48.8355,-25.811 10.2032,-5.9573 13.7322,-11.0052 17.2156,-24.625 1.8869,-7.3778 1.9411,-13.0824 2.0032,-210.6917 0.036,-115.8848 0.4516,-205.42401 0.9669,-208.50021 1.6838,-10.0531 8.959,-17.1105 18.4498,-17.8976 9.67,-0.8019 12.3969,1.1731 49.6063,35.9274 18.4675,17.249 41.1925,38.3797 50.5,46.95721 9.3075,8.5775 28.8392,26.5775 43.4038,40 14.5646,13.4225 47.4369,43.7546 73.0495,67.4046 25.6127,23.65 56.8774,52.45 69.4772,64 31.3322,28.7217 71.9645,66.1761 95.9922,88.4844 11,10.2129 35.75,33.145 55,50.9602 56.6009,52.382 55.5,51.1631 55.5,61.4505 0,6.5867 -1.2337,10.1605 -4.8136,13.9442 -5.5724,5.8895 -13.6984,7.5628 -21.3009,4.3862 -4.3366,-1.8119 -6.323,-3.6091 -85.8855,-77.7043 -11.6606,-10.8593 -28.6146,-26.5955 -49,-45.4801 -10.122,-9.3769 -80.5445,-73.8642 -101,-92.4878 -6.875,-6.2593 -18.5842,-17.0444 -26.0205,-23.9669 -7.4362,-6.9225 -28.5707,-26.5364 -46.9655,-43.5864 -18.3948,-17.05 -40.1351,-37.3 -48.3118,-45 -8.1767,-7.7 -23.1089,-21.65 -33.1828,-31 -10.0738,-9.35 -26.0501,-24.2 -35.5029,-33 -9.4528,-8.80001 -17.5986,-16.15001 -18.1017,-16.33331 -0.551,-0.2008 -0.9148,73.22541 -0.9148,184.62171 v 184.9552 l -2.3967,9.448 c -5.4721,21.5717 -17.3981,38.1663 -36.302,50.5128 -4.5092,2.945 -22.5092,12.8123 -40,21.9273 -17.4907,9.1149 -33.1513,17.3789 -34.8013,18.3644 -1.65,0.9855 -12.9257,6.7707 -25.0572,12.856 -12.1314,6.0854 -22.8253,11.9131 -23.7642,12.9505 -0.9389,1.0375 -2.393,4.5438 -3.2314,7.7918 -1.8884,7.3162 -6.4283,17.2003 -10.1421,22.0811 -9.1454,12.0192 -29.3426,19.3259 -44.795,16.2054 z m 18.0456,-35.3556 c 4.2214,-3.2198 5.4466,-6.0003 5.4377,-12.3404 -0.012,-8.3774 -5.8479,-14.1667 -14.2931,-14.1783 -6.3097,-0.01 -10.2261,2.1436 -12.6905,6.9742 -7.6543,15.0036 8.4028,29.5692 21.5459,19.5445 z M 514.9323,1449.158 c -6.6,-3.7343 -18.975,-10.8588 -27.5,-15.8321 -8.525,-4.9733 -24.5,-14.2148 -35.5,-20.5366 -28.4735,-16.364 -38.7622,-23.2658 -45.8971,-30.7886 -9.8314,-10.3658 -15.4082,-22.2767 -17.5681,-37.5215 -0.8132,-5.7391 -1.0398,-97.4958 -0.8274,-334.9049 l 0.2926,-326.99998 2.2966,-7.87504 c 2.826,-9.69083 6.1679,-16.41501 11.801,-23.74477 8.1916,-10.65888 13.979,-14.99423 39.9024,-29.89096 6.05,-3.4766 17.75,-10.22487 26,-14.99617 15.9444,-9.22127 62.6395,-35.79801 76,-43.25574 4.4,-2.45606 13.85,-7.84943 21,-11.98527 7.15,-4.13584 25.375,-14.60604 40.5,-23.2671 34.6549,-19.8445 70.8901,-40.68738 86.724,-49.88457 6.7233,-3.90521 19.9983,-11.51977 29.5,-16.92125 9.5018,-5.40148 30.101,-17.16342 45.776,-26.13765 126.7484,-72.56586 211.3208,-120.65322 219.2258,-124.65052 20.1828,-10.20574 45.4279,-11.82617 65.7738,-4.2219 3.5748,1.33608 20.2248,10.23318 37,19.77133 57.4759,32.68001 65.5714,37.29099 104.5004,59.52117 93.199,53.2207 162.0744,92.34503 181,102.81615 9.8939,5.47408 12.258,7.61004 13.491,12.18869 1.9092,7.0903 -1.9988,14.0336 -7.8988,14.0336 -1.3545,0 -6.9919,-2.55236 -12.5275,-5.67191 -26.9527,-15.18904 -43.2457,-24.42871 -94.0647,-53.3438 -105.4171,-59.98038 -141.2294,-80.40283 -176,-100.36624 -54.8029,-31.46491 -56.6759,-32.23276 -76.5,-31.36183 -15.1474,0.66546 -22.5292,3.40438 -46.8858,17.39641 -10.2378,5.88127 -25.1392,14.37149 -33.1142,18.86716 -7.975,4.49567 -26.425,15.0494 -41,23.45275 -14.575,8.40335 -32.125,18.44189 -39,22.30785 -13.4398,7.55748 -83.0427,47.21601 -99.5,56.69338 -12.6611,7.29124 -29.1496,16.7074 -42,23.98518 -5.5,3.11491 -17.65,10.10258 -27,15.52817 -9.35,5.42558 -23.3,13.44819 -31,17.82801 -7.7,4.37982 -20.3,11.55862 -28,15.95288 -7.7,4.39426 -18.5,10.5557 -24,13.69208 -5.5,3.13638 -15.85,9.08327 -23,13.2153 -7.15,4.13204 -22.225,12.84402 -33.5,19.35996 -11.275,6.51594 -23.875,13.69065 -28,15.9438 -4.125,2.25315 -11.775,6.61904 -17,9.70198 -5.225,3.08295 -18.5,10.75088 -29.5,17.03985 -11,6.28898 -25.8085,14.77452 -32.9078,18.85676 -19.5612,11.24803 -28.9424,20.74123 -34.253,34.6619 l -2.579,6.76036 0.1792,328.99998 c 0.1271,233.5264 0.4955,330.3059 1.2695,333.5 2.7668,11.4185 10.4863,21.6853 22.2911,29.6465 6.7366,4.5433 59.2687,35.2282 84.5,49.3581 9.075,5.0821 17.5125,10.3352 18.75,11.6735 2.6808,2.8993 3.0644,9.8463 0.787,14.2504 -3.1082,6.0106 -7.3555,5.4623 -22.037,-2.8448 z m 30.8873,-29.9953 c -2.262,-1.0272 -13.737,-7.4087 -25.5,-14.181 -11.763,-6.7723 -26.3373,-15.1074 -32.3873,-18.5223 -44.7258,-25.2455 -46.4873,-26.5338 -52.2652,-38.2247 l -3.7348,-7.5567 V 1014.1262 687.57432 l 4.5,-7.86407 c 2.475,-4.32524 5.85,-9.37055 7.5,-11.21181 1.8753,-2.09259 17.2472,-11.4784 41,-25.0338 37.5559,-21.43265 206.7299,-118.23096 213.5,-122.16089 1.925,-1.11742 34.1,-19.43831 71.5,-40.71308 65.9603,-37.52114 77.7175,-44.24398 110.5,-63.18489 69.8566,-40.36139 123.7559,-70.74854 128.3621,-72.36745 15.3579,-5.3979 27.7327,-3.19291 47.6379,8.48835 10.7543,6.31111 89.1926,51.2854 158.5,90.87942 11.55,6.5983 42.825,24.46318 69.5,39.69975 42.181,24.0935 58.9331,33.96413 70.2414,41.38761 1.6314,1.07091 2.4412,2.26149 2,2.94024 -0.4078,0.62734 -1.1914,2.62128 -1.7414,4.43098 l -1,3.29036 -8,-5.26238 c -4.4,-2.89431 -16.1,-9.94384 -26,-15.66564 -33.7125,-19.48445 -85.9643,-49.50305 -99.5,-57.16262 -15.0625,-8.52361 -106.411,-60.70261 -143.5,-81.96836 -38.0771,-21.83235 -44.8218,-24.72371 -55.4294,-23.76185 -9.3155,0.8447 -13.6805,3.00709 -65.0706,32.2356 -7.975,4.53584 -23.05,13.10156 -33.5,19.03493 -10.45,5.93336 -24.625,14.03439 -31.5,18.00227 -20.7807,11.99351 -47.9033,27.51921 -58.5,33.48701 -5.5,3.09744 -36.775,20.93017 -69.5,39.62827 -32.725,18.69811 -70.975,40.53691 -85,48.53069 -14.025,7.99377 -43.725,24.99786 -66,37.78687 -57.0729,32.76792 -143.2526,82.03613 -151.1318,86.40082 -7.7449,4.2902 -15.1062,11.74358 -18.1889,18.41644 l -2.1793,4.71723 v 323.99998 324 l 2.3818,5.2701 c 3.5597,7.8764 10.4809,13.3947 32.7192,26.0873 33.1732,18.9336 64.574,37.8864 70.5681,42.5933 4.4183,3.4694 5.551,4.9037 5.1334,6.5005 -0.6484,2.4793 -0.7524,2.4818 -5.9152,0.1372 z m 85.6062,-20.0227 c -8.4768,-2.5786 -14.1377,-8.7342 -15.9921,-17.3896 -0.8037,-3.7512 -1.0253,-106.0699 -0.8052,-371.6761 l 0.3038,-366.49998 2.1311,-4.60847 c 5.2003,-11.24502 20.7227,-15.47412 30.3966,-8.28157 2.1379,1.58952 17.2596,15.49004 33.6039,30.89004 16.3443,15.4 36.951,34.71166 45.7926,42.91477 22.6336,20.999 101.2725,94.3778 112.0799,104.5829 4.9522,4.6763 18.8833,17.7273 30.9579,29.0023 12.0746,11.275 26.2569,24.55 31.5162,29.5 5.2593,4.95 24.1519,22.5 41.9837,39 17.8317,16.5 49.9976,46.3948 71.4797,66.4329 21.4821,20.0381 44.8898,41.86311 52.017,48.50001 7.1272,6.6369 20.6272,19.2822 30,28.1006 41.1228,38.6905 124.1362,115.7059 165.5702,153.607 11.8091,10.8023 28.9621,26.5523 38.1176,35 82.921,76.5106 98.9711,91.2535 100.5459,92.3566 1.7425,1.2204 1.8077,-10.7489 1.8077,-331.86551 0,-275.3835 0.2316,-333.78603 1.3359,-336.90697 3.0386,-8.58706 10.3995,-13.7246 19.6641,-13.7246 9.6741,0 17.0477,5.52946 19.336,14.5 0.6814,2.67132 1.1272,122.58487 1.3422,360.99998 l 0.3218,357 -3,6 c -3.7448,7.4896 -9.1763,11.5703 -16.3131,12.2561 -8.0713,0.7755 -11.2833,-0.9749 -25.0246,-13.6374 -6.9642,-6.4175 -29.0354,-26.7321 -49.0471,-45.1435 -79.0415,-72.7209 -154.3064,-142.5306 -175.1232,-162.4302 -8.929,-8.5356 -28.6574,-26.9001 -85.9898,-80.045 -5.3401,-4.95 -16.1876,-15.0601 -24.1057,-22.4669 -7.9181,-7.4069 -27.4316,-25.6319 -43.3634,-40.5 -15.9317,-14.8682 -37.0918,-34.68311 -47.0223,-44.03311 -9.9305,-9.35 -37.1704,-34.7511 -60.5331,-56.4469 -23.3627,-21.6959 -44.9527,-41.7692 -47.9777,-44.6074 -3.025,-2.8382 -21.925,-20.3963 -42,-39.0179 -20.075,-18.6216 -50.9,-47.367 -68.5,-63.8786 -69.2986,-65.013 -81.4359,-76.3656 -90.6608,-84.7992 -5.264,-4.81247 -9.7438,-8.74997 -9.9551,-8.74998 -0.2112,0 -0.2703,154.45538 -0.1312,343.23419 0.2817,382.4299 0.8808,350.1321 -6.6336,357.6465 -4.9764,4.9764 -12.1064,7.016 -18.1258,5.185 z m 618.5065,-296.2525 c -4.9934,-1.8611 -9.1864,-5.1382 -22.3815,-17.4926 -6.9439,-6.5013 -28.3646,-26.2206 -47.6017,-43.8206 -19.2371,-17.6 -45.1106,-41.4241 -57.4967,-52.94241 -63.9867,-59.504 -147.4848,-137.0474 -154.638,-143.61 -8.104,-7.4349 -62.8894,-58.3556 -90.3659,-83.9912 -38.634,-36.0456 -87.9145,-81.70852 -100.0686,-92.72279 -7.4447,-6.74652 -14.398,-13.72152 -15.4517,-15.5 -2.5938,-4.37762 -2.5323,-12.11433 0.1371,-17.25811 4.3584,-8.39855 17.6526,-11.97027 27.0623,-7.27082 5.0659,2.53001 28.0672,22.96763 75.2735,66.88338 7.4421,6.92334 23.6912,21.99834 36.1091,33.49994 12.4179,11.5016 32.0058,29.687 43.5287,40.412 28.3162,26.3554 97.7101,90.7089 141.9165,131.6086 71.3255,65.9902 108.0134,99.97201 126.9769,117.61121 l 21,19.5334 0.6319,-13.1266 c 0.3475,-7.2196 0.6947,-86.47661 0.7716,-176.12661 0.1357,-158.2208 0.1976,-163.26385 2.1111,-171.99997 5.0316,-22.97136 18.6139,-38.80531 46.9854,-54.77454 6.325,-3.5601 21.85,-12.34068 34.5,-19.51241 12.65,-7.17172 28.4,-15.92453 35,-19.45068 15.4499,-8.25432 29.7031,-16.53663 31.0858,-18.06344 0.5971,-0.65941 1.8602,-4.09647 2.8067,-7.6379 2.2562,-8.44162 7.6174,-17.88276 14.1405,-24.90185 10.2403,-11.01875 21.9948,-15.71326 37.4895,-14.97245 7.2898,0.34853 9.7303,0.95123 16.0378,3.96052 15.6724,7.47721 24.1868,18.88522 27.0566,36.25181 2.0128,12.18066 -2.4843,27.84697 -10.7683,37.51248 -8.2902,9.67274 -22.5935,16.10838 -35.7039,16.0646 -9.7345,-0.0325 -13.5735,-1.08551 -21.9626,-6.02431 -9.8452,-5.79597 -12.2429,-5.6594 -23.4013,1.33291 -4.8294,3.02633 -11.5738,6.89693 -14.9874,8.60133 -3.4136,1.7044 -9.9386,5.27659 -14.5,7.9382 -4.5614,2.66161 -11.4434,6.55179 -15.2934,8.64484 -3.85,2.09305 -12.4,6.8333 -19,10.5339 -6.6,3.7006 -17.1233,9.6013 -23.385,13.11268 -15.0202,8.42277 -19.8621,12.84026 -24.1851,22.06527 l -3.4299,7.31904 -0.5,202.02707 -0.5,202.02711 -2.5392,4.9337 c -1.9076,3.7066 -3.6487,5.4967 -7,7.1972 -5.4861,2.7837 -11.4861,3.6096 -15.4608,2.1281 z m 195.3642,-525.54517 c 7.6683,-5.67869 9.4168,-14.81907 4.21,-22.00694 -5.9004,-8.14525 -16.0545,-8.98083 -23.7074,-1.95089 -10.7384,9.8642 -2.244,27.76235 12.4974,26.33293 2.4004,-0.23276 5.5504,-1.30155 7,-2.3751 z"
       id="path1" />
  </g>
</svg>
